HIERARCHY
ROOT Hips
{
    OFFSET 0.000000 0.000000 0.000000
    CHANNELS 6 Xposition Yposition Zposition Zrotation Xrotation Yrotation
    JOINT Spine
    {
        OFFSET -0.000000 8.267054 0.000000
        CHANNELS 3 Zrotation Xrotation Yrotation
        JOINT Spine1
        {
            OFFSET -0.000000 23.684998 0.000000
            CHANNELS 3 Zrotation Xrotation Yrotation
            JOINT Neck
            {
                OFFSET -0.000000 23.587730 2.144339
                CHANNELS 3 Zrotation Xrotation Yrotation
                JOINT Head
                {
                    OFFSET -0.000000 14.114483 -2.016355
                    CHANNELS 3 Zrotation Xrotation Yrotation
                    End Site
                    {
                        OFFSET -0.000000 25.204432 0.000000
                    }
                }
            }
            JOINT LeftShoulder
            {
                OFFSET 4.070090 22.062094 -0.247321
                CHANNELS 3 Zrotation Xrotation Yrotation
                JOINT LeftArm
                {
                    OFFSET 10.395479 0.000000 0.000000
                    CHANNELS 3 Zrotation Xrotation Yrotation
                    JOINT LeftForeArm
                    {
                        OFFSET 37.713577 0.000000 0.000000
                        CHANNELS 3 Zrotation Xrotation Yrotation
                        JOINT LeftHand
                        {
                            OFFSET 20.284107 0.000000 0.000000
                            CHANNELS 3 Zrotation Xrotation Yrotation
                            End Site
                            {
                                OFFSET 15.122660 0.000000 0.000000
                            }
                        }
                    }
                }
            }
            JOINT RightShoulder
            {
                OFFSET -3.979272 22.062094 -0.247321
                CHANNELS 3 Zrotation Xrotation Yrotation
                JOINT RightArm
                {
                    OFFSET -10.395479 0.000000 0.000000
                    CHANNELS 3 Zrotation Xrotation Yrotation
                    JOINT RightForeArm
                    {
                        OFFSET -37.713577 0.000000 0.000000
                        CHANNELS 3 Zrotation Xrotation Yrotation
                        JOINT RightHand
                        {
                            OFFSET -20.284107 0.000000 0.000000
                            CHANNELS 3 Zrotation Xrotation Yrotation
                            End Site
                            {
                                OFFSET -15.122660 0.000000 0.000000
                            }
                        }
                    }
                }
            }
        }
    }
    JOINT LeftUpLeg
    {
        OFFSET 10.081773 0.000000 0.000000
        CHANNELS 3 Zrotation Xrotation Yrotation
        JOINT LeftLeg
        {
            OFFSET -0.000000 -36.382099 0.000000
            CHANNELS 3 Zrotation Xrotation Yrotation
            JOINT LeftFoot
            {
                OFFSET -0.000000 -49.182560 0.000000
                CHANNELS 3 Zrotation Xrotation Yrotation
                JOINT LeftToeBase
                {
                    OFFSET -0.000000 -6.553152 15.122660
                    CHANNELS 3 Zrotation Xrotation Yrotation
                    End Site
                    {
                        OFFSET -0.000000 0.000000 4.032709
                    }
                }
            }
        }
    }
    JOINT RightUpLeg
    {
        OFFSET -10.081773 0.000000 0.000000
        CHANNELS 3 Zrotation Xrotation Yrotation
        JOINT RightLeg
        {
            OFFSET -0.000000 -36.382099 0.000000
            CHANNELS 3 Zrotation Xrotation Yrotation
            JOINT RightFoot
            {
                OFFSET -0.000000 -49.182560 0.000000
                CHANNELS 3 Zrotation Xrotation Yrotation
                JOINT RightToeBase
                {
                    OFFSET -0.000000 -6.553152 15.122660
                    CHANNELS 3 Zrotation Xrotation Yrotation
                    End Site
                    {
                        OFFSET -0.000000 0.000000 4.032709
                    }
                }
            }
        }
    }
}
MOTION
Frames:    11
Frame Time:    0.008333
4.926953    88.661011    0.485746    6.333405    -7.133798    -177.016571    -3.968756    -2.778836    2.181126    -2.087134    0.039811    2.278165    2.726405    19.137218    -3.794013    7.462033    -1.935613    -2.685008    6.663725    9.646020    -4.677758    -60.472687    56.719093    -9.303757    0.970038    -16.635099    -14.694277    -8.023097    -16.870720    5.290138    -3.406243    6.484490    0.573959    62.104515    57.842159    18.236172    -1.534062    -13.261803    25.850079    -0.705721    -12.882583    -6.049492    20.464375    -29.127518    -0.248819    3.589364    50.303150    7.914581    3.934721    -7.823138    -0.958830    0.000000    0.000000    0.000000    3.251650    -20.011417    -2.634245    3.915014    33.128101    -5.172148    1.352254    -16.797684    -2.504091    0.000000    0.000000    0.000000    
5.403166    88.742805    0.225116    6.297424    -7.118066    -177.321320    -3.865516    -2.674546    2.423737    -2.314456    0.067348    2.515374    2.656365    19.161842    -3.773884    7.591329    -1.990275    -2.641118    6.637584    9.653761    -4.616916    -60.613911    56.786354    -9.283841    0.971970    -16.624210    -14.766191    -8.265277    -16.870394    5.298995    -3.459185    6.476303    0.730323    61.925491    57.955853    18.296291    -1.572512    -13.357322    25.894207    -0.690973    -12.969757    -6.054662    19.529699    -30.014439    -0.794307    3.517926    52.188786    7.241124    3.885001    -8.121153    -1.065622    0.000000    0.000000    0.000000    3.517993    -19.548662    -2.739887    3.883672    32.649422    -4.951830    1.256057    -16.752277    -2.301103    0.000000    0.000000    0.000000    
5.902903    88.836769    -0.074051    6.258963    -7.117997    -177.667572    -3.733096    -2.586774    2.700762    -2.564684    0.089418    2.787091    2.574056    19.177105    -3.754672    7.718926    -2.013507    -2.601027    6.607934    9.668488    -4.536393    -60.803913    56.854538    -9.252003    0.965463    -16.623543    -14.877935    -8.494005    -16.880928    5.314891    -3.529925    6.488745    0.898164    61.721161    58.075737    18.380400    -1.606155    -13.473791    25.935335    -0.689300    -13.078302    -6.066452    18.436556    -30.945377    -1.552865    3.173957    54.116470    7.081478    3.747936    -8.461880    -1.331350    0.000000    0.000000    0.000000    3.772179    -19.030563    -2.932127    3.846522    32.101349    -4.659136    1.176922    -16.670368    -2.051318    0.000000    0.000000    0.000000    
6.351821    88.928650    -0.367404    6.223392    -7.141072    -178.001389    -3.596000    -2.531747    2.970478    -2.792507    0.097031    3.052321    2.494273    19.180614    -3.738640    7.817944    -2.005209    -2.571140    6.576546    9.685376    -4.446836    -61.022514    56.921318    -9.204990    0.957097    -16.632980    -15.016471    -8.684654    -16.900457    5.338000    -3.610814    6.489595    1.062336    61.587147    58.181530    18.401413    -1.632838    -13.582692    25.969572    -0.689593    -13.180805    -6.078565    17.353359    -31.787085    -2.383739    2.579058    55.775070    7.463871    3.560284    -8.798452    -1.687762    0.000000    0.000000    0.000000    3.976881    -18.540659    -3.173281    3.815034    31.563135    -4.349538    1.128315    -16.564219    -1.792806    0.000000    0.000000    0.000000    
6.780633    89.022377    -0.669353    6.189644    -7.188237    -178.336533    -3.450845    -2.502483    3.244925    -3.009968    0.090570    3.322697    2.418224    19.171612    -3.722851    7.892781    -1.971175    -2.547321    6.544326    9.702767    -4.343013    -61.276981    56.998970    -9.141573    0.950941    -16.652704    -15.185779    -8.858109    -16.929857    5.371837    -3.704911    6.487836    1.227688    61.501984    58.266594    18.381432    -1.650657    -13.680986    25.998520    -0.686293    -13.274953    -6.089012    16.238188    -32.598526    -3.268187    1.761132    57.264874    8.252956    3.345675    -9.139922    -2.106317    0.000000    0.000000    0.000000    4.156328    -18.055834    -3.445703    3.792617    31.007490    -4.027342    1.098492    -16.433533    -1.521439    0.000000    0.000000    0.000000    
7.188106    89.115921    -0.975679    6.157112    -7.259322    -178.666229    -3.302051    -2.496527    3.519411    -3.218333    0.069239    3.593325    2.353336    19.147650    -3.706351    7.944401    -1.913767    -2.528109    6.519099    9.721474    -4.224437    -61.560410    57.089291    -9.069380    0.947796    -16.681982    -15.382501    -9.013251    -16.968351    5.417465    -3.803844    6.483500    1.391898    61.462486    58.323555    18.322922    -1.656033    -13.763625    26.023146    -0.677616    -13.356589    -6.098400    15.107971    -33.379311    -4.159919    0.782419    58.570347    9.320861    3.127429    -9.481111    -2.548779    0.000000    0.000000    0.000000    4.316790    -17.587738    -3.736865    3.773308    30.448074    -3.701690    1.081753    -16.282347    -1.241301    0.000000    0.000000    0.000000    
7.590661    89.211082    -1.297298    6.124526    -7.354643    -178.995728    -3.147845    -2.510863    3.800710    -3.423575    0.035865    3.870783    2.297552    19.107973    -3.688201    7.981855    -1.842877    -2.510473    6.501331    9.737480    -4.083888    -61.881374    57.200859    -8.986712    0.948237    -16.719809    -15.613068    -9.156311    -17.015314    5.477282    -3.906304    6.472890    1.557292    61.462433    58.356232    18.225948    -1.648855    -13.834178    26.047117    -0.661121    -13.429311    -6.108976    13.925619    -34.162796    -5.076026    -0.359090    59.732399    10.615640    2.916636    -9.833571    -2.995409    0.000000    0.000000    0.000000    4.470526    -17.121237    -4.047732    3.753448    29.870302    -3.367424    1.068499    -16.110502    -0.949963    0.000000    0.000000    0.000000    
7.972753    89.302528    -1.619433    6.091990    -7.466773    -179.302856    -3.000921    -2.541710    4.072721    -3.613795    -0.003874    4.139194    2.251983    19.056503    -3.670024    8.009960    -1.774271    -2.494097    6.489239    9.740854    -3.927789    -62.228031    57.336323    -8.887929    0.953624    -16.763151    -15.864830    -9.285540    -17.067091    5.545527    -4.005160    6.456158    1.714873    61.499084    58.358242    18.098396    -1.629116    -13.887046    26.068697    -0.637089    -13.487594    -6.116889    12.743408    -34.921303    -5.967546    -1.568625    60.702194    11.991366    2.732770    -10.166163    -3.403356    0.000000    0.000000    0.000000    4.613981    -16.676350    -4.353978    3.735927    29.304533    -3.030553    1.045654    -15.932945    -0.690581    0.000000    0.000000    0.000000    
8.348783    89.392723    -1.951324    6.055199    -7.598363    -179.591599    -2.862858    -2.586467    4.341185    -3.795584    -0.052014    4.404096    2.214734    18.990816    -3.651148    8.036548    -1.708976    -2.477113    6.482508    9.731536    -3.755514    -62.610031    57.499706    -8.766178    0.967627    -16.813047    -16.143482    -9.411243    -17.124304    5.617527    -4.100254    6.437556    1.869596    61.563606    58.330257    17.947250    -1.594836    -13.928989    26.089121    -0.614403    -13.538187    -6.121199    11.517075    -35.687115    -6.856420    -2.822425    61.514225    13.398861    2.570149    -10.472438    -3.772273    0.000000    0.000000    0.000000    4.752241    -16.240408    -4.656333    3.722115    28.736456    -2.676010    1.001670    -15.750325    -0.477594    0.000000    0.000000    0.000000    
8.717723    89.480743    -2.289779    6.013435    -7.746465    -179.854767    -2.738359    -2.641828    4.600856    -3.965523    -0.106675    4.660320    2.179748    18.911432    -3.631096    8.070134    -1.651634    -2.457461    6.477581    9.715983    -3.578397    -63.021446    57.680664    -8.618985    0.996409    -16.869377    -16.447901    -9.535972    -17.185715    5.689972    -4.191597    6.419231    2.022585    61.647591    58.278614    17.782978    -1.547791    -13.968575    26.109749    -0.601148    -13.588827    -6.123501    10.252732    -36.456661    -7.739607    -4.067522    62.159508    14.765613    2.424982    -10.734287    -4.096756    0.000000    0.000000    0.000000    4.886167    -15.816336    -4.945883    3.713297    28.171772    -2.312290    0.934557    -15.565742    -0.319707    0.000000    0.000000    0.000000    
9.078948    89.566292    -2.632593    5.963547    -7.910970    179.911621    -2.633153    -2.710546    4.847059    -4.120645    -0.161129    4.903559    2.140439    18.821823    -3.611060    8.115479    -1.611837    -2.435029    6.469604    9.697195    -3.401993    -63.451534    57.868580    -8.450355    1.034452    -16.929178    -16.777569    -9.653243    -17.248814    5.763671    -4.280976    6.399716    2.177871    61.747505    58.201790    17.612398    -1.489388    -14.005645    26.127449    -0.596597    -13.639128    -6.121961    8.951711    -37.227440    -8.619457    -5.260911    62.632050    16.043980    2.288770    -10.937202    -4.382536    0.000000    0.000000    0.000000    5.013339    -15.407965    -5.217946    3.709918    27.610907    -1.980288    0.855343    -15.379918    -0.179410    0.000000    0.000000    0.000000    
